HIERARCHY
ROOT Hips
{
	OFFSET 0.00000 0.00000 0.00000
	CHANNELS 6 Xposition Yposition Zposition Zrotation Yrotation Xrotation 
	JOINT LHipJoint
	{
		OFFSET 0 0 0
		CHANNELS 3 Zrotation Yrotation Xrotation
		JOINT LeftUpLeg
		{
			OFFSET 1.23340 -1.80723 0.69510
			CHANNELS 3 Zrotation Yrotation Xrotation
			JOINT LeftLeg
			{
				OFFSET 2.50056 -6.87023 0.00000
				CHANNELS 3 Zrotation Yrotation Xrotation
				JOINT LeftFoot
				{
					OFFSET 2.85931 -7.85591 0.00000
					CHANNELS 3 Zrotation Yrotation Xrotation
					JOINT LeftToeBase
					{
						OFFSET 0.21001 -0.57700 2.07823
						CHANNELS 3 Zrotation Yrotation Xrotation
						End Site
						{
							OFFSET 0.00000 -0.00000 1.08338
						}
					}
				}
			}
		}
	}
	JOINT RHipJoint
	{
		OFFSET 0 0 0
		CHANNELS 3 Zrotation Yrotation Xrotation
		JOINT RightUpLeg
		{
			OFFSET -1.40842 -1.80723 0.69510
			CHANNELS 3 Zrotation Yrotation Xrotation
			JOINT RightLeg
			{
				OFFSET -2.54876 -7.00266 0.00000
				CHANNELS 3 Zrotation Yrotation Xrotation
				JOINT RightFoot
				{
					OFFSET -2.74835 -7.55104 0.00000
					CHANNELS 3 Zrotation Yrotation Xrotation
					JOINT RightToeBase
					{
						OFFSET -0.22633 -0.62184 2.00890
						CHANNELS 3 Zrotation Yrotation Xrotation
						End Site
						{
							OFFSET -0.00000 -0.00000 1.05493
						}
					}
				}
			}
		}
	}
	JOINT LowerBack
	{
		OFFSET 0 0 0
		CHANNELS 3 Zrotation Yrotation Xrotation
		JOINT Spine
		{
			OFFSET -0.02340 2.02740 -0.12728
			CHANNELS 3 Zrotation Yrotation Xrotation
			JOINT Spine1
			{
				OFFSET -0.00862 2.03614 -0.01188
				CHANNELS 3 Zrotation Yrotation Xrotation
				JOINT Neck
				{
					OFFSET 0 0 0
					CHANNELS 3 Zrotation Yrotation Xrotation
					JOINT Neck1
					{
						OFFSET 0.03380 1.76650 0.27670
						CHANNELS 3 Zrotation Yrotation Xrotation
						JOINT Head
						{
							OFFSET -0.01114 1.80516 -0.21451
							CHANNELS 3 Zrotation Yrotation Xrotation
							End Site
							{
								OFFSET -0.00766 1.81942 -0.10287
							}
						}
					}
				}
				JOINT LeftShoulder
				{
					OFFSET 0 0 0
					CHANNELS 3 Zrotation Yrotation Xrotation
					JOINT LeftArm
					{
						OFFSET 3.22358 1.39475 0.18630
						CHANNELS 3 Zrotation Yrotation Xrotation
						JOINT LeftForeArm
						{
							OFFSET 5.45077 -0.00000 0.00000
							CHANNELS 3 Zrotation Yrotation Xrotation
							JOINT LeftHand
							{
								OFFSET 3.05488 -0.00000 0.00000
								CHANNELS 3 Zrotation Yrotation Xrotation
								JOINT LeftFingerBase
								{
									OFFSET 0 0 0
									CHANNELS 3 Zrotation Yrotation Xrotation
									JOINT LeftHandIndex1
									{
										OFFSET 0.63882 -0.00000 0.00000
										CHANNELS 3 Zrotation Yrotation Xrotation
										End Site
										{
											OFFSET 0.51503 -0.00000 0.00000
										}
									}
								}
								JOINT LThumb
								{
									OFFSET 0 0 0
									CHANNELS 3 Zrotation Yrotation Xrotation
									End Site
									{
										OFFSET 0.52290 -0.00000 0.52290
									}
								}
							}
						}
					}
				}
				JOINT RightShoulder
				{
					OFFSET 0 0 0
					CHANNELS 3 Zrotation Yrotation Xrotation
					JOINT RightArm
					{
						OFFSET -3.57143 1.14055 0.30691
						CHANNELS 3 Zrotation Yrotation Xrotation
						JOINT RightForeArm
						{
							OFFSET -4.88702 -0.00000 -0.00000
							CHANNELS 3 Zrotation Yrotation Xrotation
							JOINT RightHand
							{
								OFFSET -3.22603 -0.00000 0.00000
								CHANNELS 3 Zrotation Yrotation Xrotation
								JOINT RightFingerBase
								{
									OFFSET 0 0 0
									CHANNELS 3 Zrotation Yrotation Xrotation
									JOINT RightHandIndex1
									{
										OFFSET -0.71629 -0.00000 0.00000
										CHANNELS 3 Zrotation Yrotation Xrotation
										End Site
										{
											OFFSET -0.57749 -0.00000 0.00000
										}
									}
								}
								JOINT RThumb
								{
									OFFSET 0 0 0
									CHANNELS 3 Zrotation Yrotation Xrotation
									End Site
									{
										OFFSET -0.58631 -0.00000 0.58631
									}
								}
							}
						}
					}
				}
			}
		}
	}
}
MOTION
Frames: 14
Frame Time: .0083333
1.5709 18.5844 0.4096 -252.9980 87.8787 -237.5110 0.0000 0.0000 0.0000 -20.5192 1.3662 -20.4076 0.7765 5.6264 15.7040 0.3144 -7.2521 -10.4823 2.3850 -9.6258 -27.7733 0.0000 0.0000 0.0000 16.4191 -4.6703 -12.5532 0.0000 0.0000 -0.0000 0.1745 8.0066 -0.3709 -0.1376 2.3911 -6.5879 0.0789 -0.9115 -8.4677 -0.8424 -1.1121 -3.0868 -1.0183 -0.5211 1.5345 2.6223 0.1364 -19.7063 0.4903 -0.6430 19.2261 -0.3448 -0.0158 9.3078 -0.0000 0.0000 0.0000 -98.4020 -47.2200 34.7921 44.2357 -50.3885 -21.6484 -0.0000 0.0000 -72.3126 17.4370 28.7991 8.6041 -7.1250 0.0000 -0.0000 -15.2416 59.2787 -5.3939 -0.0000 0.0000 0.0000 112.2158 51.3517 26.4515 -29.0904 40.1009 -10.8189 0.0000 0.0000 141.6930 -13.9565 -3.1808 0.7900 7.1250 -0.0000 -0.0000 10.2722 -33.1304 3.0298
1.5708 18.5846 0.4113 -252.6170 87.8602 -237.1560 0.0000 0.0000 0.0000 -20.5257 1.3813 -20.3942 0.7786 5.6338 15.7256 0.3115 -7.3029 -10.4561 2.3673 -9.5925 -27.6669 0.0000 0.0000 0.0000 16.4145 -4.7006 -12.5261 0.0000 0.0000 -0.0000 0.1760 8.0571 -0.4156 -0.1392 2.4045 -6.6249 0.0267 -0.9195 -8.4449 -0.8271 -1.1193 -3.0793 -0.9735 -0.5247 1.5309 2.6685 0.1535 -19.7122 0.4293 -0.6190 19.3257 -0.3703 -0.0062 9.3434 0.0000 -0.0000 0.0000 -98.8120 -47.0925 35.1111 44.3994 -50.4708 -21.7745 -0.0000 0.0000 -72.4466 17.8096 28.3274 8.6672 -7.1250 0.0000 -0.0000 -14.5428 58.9039 -5.0087 0.0000 -0.0000 0.0000 112.6412 51.2044 26.7712 -29.0963 40.1061 -10.8227 0.0000 0.0000 141.3060 -13.6814 -3.3545 0.8161 7.1250 -0.0000 -0.0000 10.5164 -33.2966 3.0609
1.5705 18.5834 0.4107 -252.4090 87.8680 -236.9260 0.0000 0.0000 0.0000 -20.5176 1.3633 -20.4113 0.7771 5.6282 15.7095 0.3111 -7.2847 -10.4451 2.3819 -9.6199 -27.7544 0.0000 0.0000 0.0000 16.4203 -4.6978 -12.5494 0.0000 0.0000 -0.0000 0.1751 8.0223 -0.3768 -0.1298 2.3224 -6.3976 0.0484 -0.9242 -8.4668 -0.8205 -1.1268 -3.0949 -0.9798 -0.5282 1.5265 2.6601 0.1754 -19.6751 0.4406 -0.5866 19.4036 -0.3606 0.0113 9.3644 -0.0000 -0.0000 0.0000 -99.1252 -46.9233 35.3703 44.5393 -50.5408 -21.8825 -0.0000 0.0000 -72.4320 18.1996 28.3456 8.8722 -7.1250 0.0000 -0.0000 -14.1360 59.0103 -4.9012 -0.0000 -0.0000 0.0000 113.1052 50.9886 27.1164 -29.0887 40.0994 -10.8178 0.0000 0.0000 140.9290 -13.1622 -3.6670 0.8569 7.1250 -0.0000 -0.0000 10.9777 -33.5930 3.1192
1.5704 18.5837 0.4119 -251.9770 87.8472 -236.4930 0.0000 0.0000 0.0000 -20.5391 1.4138 -20.4261 0.7737 5.6164 15.6755 0.3058 -7.3196 -10.3814 2.3931 -9.6409 -27.8217 0.0000 0.0000 0.0000 16.4192 -4.7220 -12.5513 0.0000 -0.0000 0.0000 0.1723 7.9647 -0.3905 -0.1353 2.3707 -6.5313 0.0209 -0.9296 -8.4574 -0.8195 -1.1313 -3.1170 -0.9634 -0.5302 1.4989 2.6507 0.1747 -19.6087 0.4776 -0.5896 19.4504 -0.3465 0.0147 9.3690 -0.0000 0.0000 0.0000 -99.3158 -46.7417 35.7761 44.7604 -50.6506 -22.0533 -0.0000 0.0000 -72.6104 18.4394 28.5031 9.0406 -7.1250 0.0000 -0.0000 -13.9758 59.2195 -4.9146 -0.0000 0.0000 0.0000 113.4737 50.7311 27.4353 -29.0553 40.0698 -10.7963 0.0000 0.0000 140.3800 -12.5574 -4.2114 0.9371 7.1250 -0.0000 -0.0000 11.5460 -34.1162 3.1369
1.5711 18.5838 0.4134 -250.5530 87.8111 -235.0610 0.0000 0.0000 0.0000 -20.5263 1.3175 -20.3927 0.7712 5.6073 15.6492 0.3059 -7.2742 -10.3701 2.3665 -9.5910 -27.6622 0.0000 0.0000 0.0000 16.4247 -4.7838 -12.5711 0.0000 0.0000 -0.0000 0.1717 7.9385 -0.3587 -0.1341 2.3603 -6.5024 -0.0269 -0.9406 -8.4387 -0.7931 -1.1419 -3.1536 -0.9096 -0.5349 1.4522 2.5742 0.1418 -19.5301 0.5442 -0.6236 19.4821 -0.3154 0.0018 9.3660 0.0000 -0.0000 0.0000 -99.5968 -46.5700 36.2226 44.9669 -50.7523 -22.2132 -0.0000 0.0000 -72.8206 18.8226 28.3014 9.1801 -7.1250 0.0000 -0.0000 -13.4385 59.1091 -4.6856 0.0000 -0.0000 0.0000 113.7157 50.4864 27.6712 -29.0008 40.0214 -10.7612 0.0000 0.0000 139.8890 -12.1826 -4.7804 1.0307 7.1250 -0.0000 -0.0000 11.9388 -34.6696 3.0838
1.5709 18.5834 0.4136 -249.2870 87.7858 -233.7930 0.0000 0.0000 0.0000 -20.5167 1.2794 -20.3751 0.7691 5.6001 15.6285 0.3027 -7.3005 -10.3339 2.3376 -9.5364 -27.4882 0.0000 0.0000 0.0000 16.4386 -4.8344 -12.5877 0.0000 -0.0000 0.0000 0.1725 7.9643 -0.3775 -0.1414 2.4231 -6.6765 -0.0044 -0.9290 -8.4744 -0.8068 -1.1275 -3.1475 -0.9357 -0.5277 1.4777 2.5351 0.1063 -19.5103 0.6151 -0.6759 19.5519 -0.2915 -0.0155 9.3868 -0.0000 -0.0000 0.0000 -99.9794 -46.4897 36.5978 45.0712 -50.8033 -22.2940 -0.0000 0.0000 -72.9540 18.8304 28.0513 9.1109 -7.1250 0.0000 -0.0000 -13.2792 58.8642 -4.5507 -0.0000 -0.0000 0.0000 113.9159 50.3850 27.8687 -28.9050 39.9361 -10.6997 0.0000 0.0000 139.4690 -12.0934 -5.2999 1.1338 7.1250 -0.0000 -0.0000 12.0967 -35.1846 2.9713
1.5706 18.5827 0.4129 -249.0550 87.7907 -233.5280 0.0000 0.0000 0.0000 -20.5294 1.3302 -20.4353 0.7675 5.5943 15.6116 0.3004 -7.3223 -10.3081 2.3758 -9.6085 -27.7181 0.0000 0.0000 0.0000 16.4438 -4.8292 -12.6254 0.0000 -0.0000 0.0000 0.1751 8.0386 -0.4186 -0.1364 2.3806 -6.5586 0.0480 -0.9084 -8.5572 -0.8352 -1.1024 -3.1551 -0.9934 -0.5149 1.5143 2.5521 0.0978 -19.4480 0.6667 -0.7008 19.6392 -0.2796 -0.0176 9.4062 -0.0000 0.0000 0.0000 -100.1622 -46.3335 37.0045 45.3629 -50.9450 -22.5202 -0.0000 0.0000 -73.3706 18.8513 27.5827 8.9836 -7.1250 0.0000 -0.0000 -12.9819 58.4058 -4.3032 -0.0000 0.0000 0.0000 114.2091 50.2224 28.2491 -28.9537 39.9795 -10.7309 0.0000 0.0000 138.6080 -11.0904 -5.0256 0.9837 7.1250 -0.0000 -0.0000 12.8665 -34.8626 3.2716
1.5704 18.5834 0.4129 -248.6480 87.8254 -233.1180 0.0000 0.0000 0.0000 -20.4678 1.2850 -20.4233 0.7688 5.5990 15.6251 0.3017 -7.3215 -10.3257 2.3570 -9.5732 -27.6053 0.0000 0.0000 0.0000 16.4862 -4.8185 -12.6274 0.0000 -0.0000 0.0000 0.1755 8.0674 -0.4651 -0.1392 2.4045 -6.6249 0.1104 -0.8976 -8.6077 -0.8432 -1.0928 -3.1380 -1.0369 -0.5104 1.5585 2.5515 0.0987 -19.4396 0.7263 -0.7121 19.7247 -0.2604 -0.0138 9.4349 -0.0000 -0.0000 0.0000 -100.3353 -46.2451 37.3476 45.4840 -51.0034 -22.6143 -0.0000 0.0000 -73.7088 19.0675 27.2409 8.9905 -7.1250 0.0000 -0.0000 -12.5566 58.1149 -4.0712 -0.0000 -0.0000 0.0000 114.5648 50.0578 28.6545 -29.0033 40.0236 -10.7629 0.0000 0.0000 137.7100 -9.2559 -4.3273 0.7045 7.1250 -0.0000 -0.0000 14.2244 -34.0889 3.9099
1.5707 18.5841 0.4140 -248.5740 87.7778 -233.0270 0.0000 0.0000 0.0000 -20.5214 1.3132 -20.4790 0.7718 5.6096 15.6557 0.3002 -7.4024 -10.3278 2.3472 -9.5545 -27.5459 0.0000 0.0000 0.0000 16.4502 -4.8433 -12.6539 0.0000 -0.0000 0.0000 0.1734 8.0262 -0.4760 -0.1401 2.4121 -6.6459 0.0830 -0.9038 -8.6292 -0.8683 -1.0978 -3.1336 -1.0483 -0.5126 1.5748 2.6033 0.0985 -19.4884 0.6851 -0.7201 19.8054 -0.2843 -0.0167 9.4717 0.0000 -0.0000 0.0000 -100.6180 -46.1583 37.6563 45.4104 -50.9680 -22.5571 -0.0000 0.0000 -73.7514 19.1312 26.9570 8.9368 -7.1250 0.0000 -0.0000 -12.3315 57.8466 -3.9168 0.0000 -0.0000 0.0000 114.8513 49.9307 28.7545 -29.0170 40.0358 -10.7716 0.0000 0.0000 137.7740 -7.8861 -4.0889 0.5659 7.1250 -0.0000 -0.0000 15.2762 -33.7955 4.3292
1.5707 18.5841 0.4155 -248.0810 87.7663 -232.5330 0.0000 0.0000 0.0000 -20.5283 1.3464 -20.5119 0.7739 5.6170 15.6770 0.2991 -7.4723 -10.3322 2.3415 -9.5438 -27.5116 0.0000 0.0000 0.0000 16.4623 -4.8628 -12.6587 0.0000 0.0000 -0.0000 0.1733 8.0401 -0.5146 -0.1650 2.6174 -7.2152 0.0655 -0.9157 -8.5970 -0.8688 -1.1120 -3.1558 -1.0395 -0.5196 1.5343 2.6455 0.1027 -19.5552 0.6798 -0.7281 19.9608 -0.2943 -0.0143 9.5382 0.0000 0.0000 0.0000 -100.8121 -45.9937 37.9099 45.4989 -51.0106 -22.6259 -0.0000 0.0000 -73.8993 19.0915 26.6756 8.8322 -7.1250 0.0000 -0.0000 -12.2211 57.5577 -3.7956 0.0000 0.0000 0.0000 115.1472 49.7681 28.9246 -29.0119 40.0313 -10.7684 0.0000 0.0000 137.3550 -8.0680 -4.0305 0.5708 7.1250 -0.0000 -0.0000 15.1205 -33.7465 4.3009
1.5702 18.5836 0.4158 -248.1750 87.7967 -232.6450 0.0000 0.0000 0.0000 -20.5066 1.3993 -20.5096 0.7746 5.6195 15.6844 0.2963 -7.4648 -10.2918 2.3497 -9.5594 -27.5614 0.0000 0.0000 0.0000 16.4811 -4.8479 -12.6351 0.0000 0.0000 -0.0000 0.1749 8.0710 -0.5009 -0.1645 2.6132 -7.2036 0.0993 -0.9013 -8.5734 -0.8719 -1.0955 -3.1639 -1.0596 -0.5117 1.5124 2.6351 0.0875 -19.6234 0.7232 -0.7583 20.1566 -0.2816 -0.0195 9.6197 0.0000 0.0000 0.0000 -100.9894 -45.8293 38.2074 45.6611 -51.0883 -22.7520 -0.0000 0.0000 -74.1621 19.3392 26.0988 8.7769 -7.1250 0.0000 -0.0000 -11.6571 57.0348 -3.4695 0.0000 0.0000 0.0000 115.5434 49.5434 29.1554 -29.0483 40.0636 -10.7918 0.0000 0.0000 136.7480 -8.8642 -4.1978 0.6540 7.1250 -0.0000 -0.0000 14.5151 -33.9445 4.0468
1.5688 18.5843 0.4164 -248.7650 87.8004 -233.2310 0.0000 0.0000 0.0000 -20.4963 1.3655 -20.5111 0.7761 5.6249 15.6999 0.2960 -7.4031 -10.2697 2.3309 -9.5238 -27.4479 0.0000 0.0000 0.0000 16.4682 -4.8251 -12.6399 0.0000 0.0000 -0.0000 0.1747 8.0626 -0.4935 -0.1536 2.5257 -6.9608 0.0606 -0.8915 -8.5906 -0.8548 -1.0800 -3.1506 -1.0191 -0.5037 1.5371 2.5548 0.0645 -19.6924 0.7847 -0.7830 20.2869 -0.2504 -0.0270 9.6786 -0.0000 0.0000 0.0000 -101.2579 -45.6778 38.4799 45.8525 -51.1793 -22.9010 -0.0000 0.0000 -74.3320 19.5021 25.6973 8.7307 -7.1250 0.0000 -0.0000 -11.2835 56.6666 -3.2555 -0.0000 0.0000 0.0000 115.8030 49.4538 29.1411 -29.0186 40.0372 -10.7727 0.0000 0.0000 137.1930 -8.9280 -4.1220 0.6470 7.1250 -0.0000 -0.0000 14.4505 -33.8731 4.0536
1.5680 18.5838 0.4176 -248.8060 87.7901 -233.3130 0.0000 0.0000 0.0000 -20.4991 1.3754 -20.4650 0.7779 5.6310 15.7175 0.3003 -7.4073 -10.3294 2.3310 -9.5239 -27.4482 0.0000 0.0000 0.0000 16.4547 -4.8424 -12.6002 0.0000 -0.0000 0.0000 0.1753 8.0554 -0.4451 -0.1398 2.4097 -6.6394 0.0454 -0.8885 -8.5617 -0.8641 -1.0757 -3.1203 -1.0196 -0.5019 1.5526 2.5937 0.0666 -19.7446 0.7796 -0.7927 20.3870 -0.2600 -0.0267 9.7234 -0.0000 -0.0000 0.0000 -101.4758 -45.5728 38.7047 45.9855 -51.2422 -23.0047 -0.0000 0.0000 -74.5230 19.2082 25.5226 8.5371 -7.1250 0.0000 -0.0000 -11.5054 56.4297 -3.2545 -0.0000 -0.0000 0.0000 116.0704 49.3676 29.2835 -28.9931 40.0146 -10.7563 0.0000 0.0000 137.0910 -8.7195 -4.1993 0.6434 7.1250 -0.0000 -0.0000 14.6310 -33.9396 4.0827
1.5656 18.5834 0.4191 -248.3150 87.7614 -232.8270 0.0000 0.0000 0.0000 -20.5104 1.3771 -20.4632 0.7784 5.6328 15.7226 0.2965 -7.4856 -10.2995 2.3042 -9.4728 -27.2857 0.0000 0.0000 0.0000 16.4481 -4.8722 -12.6087 0.0000 -0.0000 0.0000 0.1765 8.0784 -0.4395 -0.1380 2.3940 -6.5958 0.0125 -0.8941 -8.5417 -0.8732 -1.0809 -3.1007 -1.0109 -0.5046 1.5622 2.6773 0.0559 -19.7466 0.7299 -0.8212 20.4024 -0.2951 -0.0388 9.7284 -0.0000 -0.0000 0.0000 -101.6793 -45.5105 38.9658 46.0829 -51.2881 -23.0807 -0.0000 0.0000 -74.6518 18.5068 25.7232 8.2660 -7.1250 0.0000 -0.0000 -12.3385 56.4842 -3.5114 -0.0000 -0.0000 0.0000 116.3051 49.2362 29.6871 -29.0254 40.0433 -10.7771 0.0000 0.0000 135.9770 -8.7968 -4.3032 0.6653 7.1250 -0.0000 -0.0000 14.5880 -34.0447 4.0317
